<svg width="45" height="40" viewBox="0 0 45 40" fill="none" xmlns="http://www.w3.org/2000/svg">
<path d="M37.5 20.4572C37.5 21.09 36.971 21.613 36.2846 21.6958L36.0938 21.7072L7.96875 21.7072C7.1921 21.7072 6.5625 21.1475 6.5625 20.4572C6.5625 19.8243 7.09154 19.3014 7.77793 19.2186L7.96875 19.2072L36.0938 19.2072C36.8704 19.2072 37.5 19.7668 37.5 20.4572Z" fill="#F3F6F7"/>
<path d="M20.3044 29.6121C20.8547 30.0992 20.8566 30.8906 20.3086 31.3798C19.8105 31.8245 19.0293 31.8664 18.4779 31.5043L18.3199 31.3836L6.97616 21.3436C6.47434 20.8995 6.42869 20.2026 6.83923 19.7125L6.97608 19.5721L18.3198 9.53046C18.8701 9.04331 19.7605 9.04495 20.3086 9.53412C20.8068 9.97881 20.8505 10.6733 20.4409 11.1619L20.3044 11.3019L9.96188 20.4583L20.3044 29.6121Z" fill="#F3F6F7"/>
</svg>
