<svg width="106" height="107" viewBox="0 0 106 107" fill="none" xmlns="http://www.w3.org/2000/svg">
<mask id="path-1-inside-1_113_133" fill="white">
<path d="M0 100C0 44.7715 44.7715 0 100 0L106 0V107H0L0 100Z"/>
</mask>
<path d="M0 100C0 44.7715 44.7715 0 100 0L106 0V107H0L0 100Z" fill="#FF715B"/>
<path d="M-4 100C-4 42.5624 42.5624 -4 100 -4L108 -4L104 4H100C46.9807 4 4 46.9807 4 100H-4ZM108 109H-4L4 105H104L108 109ZM-4 109L-4 100C-4 42.5624 42.5624 -4 100 -4V4C46.9807 4 4 46.9807 4 100L4 105L-4 109ZM108 -4V109L104 105V4L108 -4Z" fill="#FF9889" mask="url(#path-1-inside-1_113_133)"/>
<path d="M61.0462 51.3578C61.0462 51.7343 60.7687 52.0461 60.4071 52.0997L60.2962 52.1078L51.147 52.108L51.1468 61.2573C51.1468 61.6338 50.8692 61.9456 50.5076 61.9991L50.3968 62.0073C50.0202 62.0073 49.7085 61.7298 49.6549 61.3681L49.6468 61.2573L49.6468 51.3578C49.6468 50.9812 49.9243 50.6695 50.2859 50.6159L50.3968 50.6078L60.2962 50.6078C60.7105 50.6078 61.0462 50.9436 61.0462 51.3578Z" fill="#F8F2DD"/>
</svg>
