<svg width="24" height="25" viewBox="0 0 24 25" fill="none" xmlns="http://www.w3.org/2000/svg">
<path d="M12.5867 0C13.6059 0 14.4482 0.38905 14.5815 0.893815L14.5998 1.03414V21.717C14.5998 22.2881 13.6985 22.7511 12.5867 22.7511C11.5676 22.7511 10.7253 22.3621 10.592 21.8573L10.5736 21.717L10.5736 1.03414C10.5736 0.463001 11.4749 0 12.5867 0Z" fill="#FF715B"/>
<path d="M19.972 12.2863C20.4931 11.8673 23.0853 11.8691 23.6086 12.2863C24.0844 12.6655 24.1251 14.7695 23.7378 15.1893L23.6086 15.3096L12.8681 23.9454C12.3929 24.3274 11.6475 24.3621 11.1231 24.0496L10.973 23.9454L0.230605 15.3097C-0.290531 14.8907 0.234547 12.2863 0.23452 13.7957C0.234547 12.2863 3.34443 11.9744 3.86713 12.2863L12.8681 18.8721L19.972 12.2863Z" fill="#FF715B"/>
</svg>
