<svg width="24" height="25" viewBox="0 0 24 25" fill="none" xmlns="http://www.w3.org/2000/svg">
<path d="M11.4133 25C10.3941 25 9.55184 24.611 9.41854 24.1062L9.40016 23.9659V3.28301C9.40016 2.71187 10.3015 2.24887 11.4133 2.24887C12.4324 2.24887 13.2747 2.63792 13.408 3.14269L13.4264 3.28301L13.4264 23.9659C13.4264 24.537 12.5251 25 11.4133 25Z" fill="#5CBBFF"/>
<path d="M4.02795 12.7137C3.50686 13.1327 0.914707 13.1309 0.391367 12.7137C-0.0843983 12.3345 -0.125097 10.2305 0.262201 9.81068L0.391352 9.69039L11.1319 1.05464C11.6071 0.672611 12.3525 0.637859 12.8769 0.950394L13.027 1.05457L23.7694 9.69033C24.2905 10.1093 23.7655 12.7137 23.7655 11.2043C23.7655 12.7137 20.6556 13.0256 20.1329 12.7137L11.1319 6.12788L4.02795 12.7137Z" fill="#5CBBFF"/>
</svg>
