<svg width="25" height="24" viewBox="0 0 25 24" fill="none" xmlns="http://www.w3.org/2000/svg">
<path d="M0 11.4133C0 10.3941 0.38905 9.55184 0.893815 9.41854L1.03414 9.40016H21.717C22.2881 9.40016 22.7511 10.3015 22.7511 11.4133C22.7511 12.4324 22.3621 13.2747 21.8573 13.408L21.717 13.4264L1.03414 13.4264C0.463001 13.4264 0 12.5251 0 11.4133Z" fill="#FF715B"/>
<path d="M12.2863 4.02795C11.8673 3.50686 11.8691 0.914707 12.2863 0.391367C12.6655 -0.0843983 14.7695 -0.125097 15.1893 0.262201L15.3096 0.391352L23.9454 11.1319C24.3274 11.6071 24.3621 12.3525 24.0496 12.8769L23.9454 13.027L15.3097 23.7694C14.8907 24.2905 12.2863 23.7655 13.7957 23.7655C12.2863 23.7655 11.9744 20.6556 12.2863 20.1329L18.8721 11.1319L12.2863 4.02795Z" fill="#FF715B"/>
</svg>
