<svg width="25" height="24" viewBox="0 0 25 24" fill="none" xmlns="http://www.w3.org/2000/svg">
<path d="M25 11.4133C25 10.3941 24.611 9.55184 24.1062 9.41854L23.9659 9.40016H3.28301C2.71187 9.40016 2.24887 10.3015 2.24887 11.4133C2.24887 12.4324 2.63792 13.2747 3.14269 13.408L3.28301 13.4264L23.9659 13.4264C24.537 13.4264 25 12.5251 25 11.4133Z" fill="#FF715B"/>
<path d="M12.7137 4.02795C13.1327 3.50686 13.1309 0.914707 12.7137 0.391367C12.3345 -0.0843983 10.2304 -0.125097 9.81067 0.262201L9.69037 0.391352L1.05462 11.1319C0.672596 11.6071 0.637844 12.3525 0.950378 12.8769L1.05456 13.027L9.69031 23.7694C10.1093 24.2905 12.7137 23.7655 11.2043 23.7655C12.7137 23.7655 13.0255 20.6556 12.7137 20.1329L6.12786 11.1319L12.7137 4.02795Z" fill="#FF715B"/>
</svg>
